<svg width="15" height="15" viewBox="0 0 15 15" fill="none" xmlns="http://www.w3.org/2000/svg">
<path d="M13.8229 3.7876H1.55752C1.24961 3.7876 1 4.03721 1 4.34512V13.2654C1 13.5733 1.24961 13.8229 1.55752 13.8229H13.8229C14.1308 13.8229 14.3804 13.5733 14.3804 13.2654V4.34512C14.3804 4.03721 14.1308 3.7876 13.8229 3.7876Z" stroke="white" stroke-linecap="round" stroke-linejoin="round"/>
<path d="M4.90234 6.01766V3.78759C4.90234 3.04828 5.19604 2.33924 5.71881 1.81647C6.24158 1.29369 6.95062 1 7.68993 1C8.42925 1 9.13828 1.29369 9.66106 1.81647C10.1838 2.33924 10.4775 3.04828 10.4775 3.78759V6.01766" stroke="white" stroke-linecap="round" stroke-linejoin="round"/>
</svg>
