<svg width="799" height="57" viewBox="0 0 799 57" fill="none" xmlns="http://www.w3.org/2000/svg">
<path d="M798.84 7.15538C791.299 7.32349 783.758 7.65971 776.057 7.74377C765.628 7.91188 755.039 7.99593 744.61 7.82782C727.764 7.65971 710.917 6.73511 694.071 5.89456C681.396 5.22212 668.721 4.71779 656.046 4.46562C647.222 4.38157 638.558 4.46562 629.894 5.05401C622.033 5.64239 614.332 6.567 606.951 8.16404C605.989 8.33215 605.026 8.58432 603.742 8.92054C604.865 9.17271 605.507 9.34081 606.309 9.50892C611.764 10.8538 616.899 12.2827 621.391 14.3841C623.798 15.4768 625.883 16.7377 627.167 18.3347C629.734 21.1085 628.932 24.3026 624.76 26.5721C623.156 27.4967 621.07 28.2532 618.984 28.8416C613.85 30.3546 608.074 30.8589 602.138 30.5227C597.164 30.2705 592.511 29.3459 588.661 27.6648C584.489 25.8156 582.404 23.4621 582.885 20.6042C583.206 18.9231 584.329 17.4101 585.933 16.0652C588.821 13.5436 592.832 11.5262 597.646 9.9292C598.287 9.67703 599.09 9.42487 600.052 9.08865C599.09 8.83648 598.448 8.66837 597.806 8.58432C591.228 7.57566 584.81 6.39889 578.072 5.47428C561.225 3.28885 544.058 2.02803 526.73 1.35559C504.589 0.51504 482.448 0.34693 460.307 1.77586C446.67 2.70047 433.193 3.96129 420.037 6.14672C409.126 7.91188 398.537 10.1814 388.75 13.2914C376.717 16.9898 366.93 21.9491 357.946 27.4126C352.811 30.5227 347.838 33.6327 342.704 36.7427C334.682 41.4498 325.376 45.0642 314.305 47.5018C307.406 49.0148 300.026 50.0234 292.646 50.7799C280.452 51.9567 267.938 52.461 255.584 52.6291C245.636 52.7972 235.689 52.7972 225.742 52.6291C213.227 52.377 200.713 51.9567 188.359 51.5364C183.866 51.3683 179.374 51.2002 174.882 50.948C166.699 50.5278 158.516 50.1915 150.334 49.7713C144.398 49.5191 138.461 49.1829 132.685 48.8467C123.701 48.3423 114.876 47.838 105.892 47.4177C97.0673 46.9134 88.7243 46.5772 80.2209 46.241C64.9789 45.5685 49.5765 45.2323 34.3345 45.9047C28.2378 46.241 22.3014 46.6612 16.6859 48.0061C8.8243 49.7713 2.56707 52.377 0.481325 57C-0.160442 56.2435 -0.160442 55.9073 0.481325 54.9827C1.60442 53.4697 3.52972 52.1248 5.61546 51.0321C10.1078 48.6786 15.7233 47.2496 21.8201 46.4091C31.7675 45.0642 42.0357 44.812 52.304 44.8961C69.9526 45.0642 87.6012 45.7366 105.089 46.7453C115.518 47.3337 125.947 47.838 136.376 48.4264C147.606 49.0148 158.837 49.6032 170.068 50.1075C183.224 50.6959 196.381 51.1161 209.697 51.5364C229.753 52.1248 249.808 52.377 269.863 51.5364C277.885 51.2002 285.747 50.6959 293.769 49.9394C314.145 48.0061 330.991 43.0469 344.308 34.6414C348.319 32.0357 352.491 29.5981 356.662 26.9924C370.781 17.9985 388.109 11.4422 408.966 7.40755C421.32 4.96996 433.995 3.28885 446.991 2.11208C458.222 1.10343 469.453 0.51504 480.844 0.262875C487.262 0.01071 493.84 0.094765 500.578 0.01071C511.328 -0.073345 521.917 0.34693 532.667 0.935315C542.775 1.5237 552.882 2.2802 562.99 3.12074C571.975 3.87724 580.639 4.96995 589.303 6.31483C593.474 6.98727 597.646 7.74377 601.817 8.50027C602.138 8.41621 602.619 8.33215 602.94 8.2481C608.716 6.81917 614.973 5.8105 621.231 5.05401C633.103 3.70913 644.976 3.45696 657.009 3.70913C664.871 3.87724 672.572 4.1294 680.434 4.46562C686.53 4.71779 692.627 5.05401 698.724 5.39023C706.906 5.8105 714.929 6.23078 723.111 6.567C738.674 7.07133 754.237 7.40755 769.96 7.15538C775.896 7.07133 781.993 6.90322 787.93 6.73511C791.62 6.65105 795.31 6.567 799 6.39889C798.84 6.73511 798.84 6.98727 798.84 7.15538ZM585.933 17.4101C584.489 18.839 583.687 20.4361 584.008 22.1172C584.489 24.6388 587.217 26.5721 591.228 27.917C597.485 30.0183 604.224 30.5227 611.283 29.6821C614.492 29.2618 617.54 28.6735 620.428 27.6648C627.809 24.975 629.092 20.7723 623.477 17.0739C622.354 16.4014 621.231 15.729 619.947 15.0566C615.615 12.9552 607.593 10.6016 601.496 9.59298C595.079 11.3581 589.463 13.7957 585.933 17.4101Z" fill="url(#paint0_linear_20_1926)"/>
<defs>
<linearGradient id="paint0_linear_20_1926" x1="795.977" y1="40.8928" x2="6.85025" y2="-25.449" gradientUnits="userSpaceOnUse">
<stop stop-color="#E7C16D"/>
<stop offset="0.2398" stop-color="#B8822C"/>
<stop offset="0.5153" stop-color="#7E5923"/>
<stop offset="0.8571" stop-color="#E7C16D"/>
</linearGradient>
</defs>
</svg>
